<svg xmlns="http://www.w3.org/2000/svg" width="256" height="256" viewBox="0 0 17 17">
  <path d="M 2,0 a 2 2 0 0 0 -2 2 v 13 a 2 2 0 0 0 2 2 h 13 a 2 2 0 0 0 2 -2 V 2 a 2 2 0 0 0 -2 -2 Z" style="fill:#000" />
  <path
    d="M 5,6 c 0,-2.5 2,-4 4,-4 c 2,0 3.4,1.2 4,3 c 0.3,0.9 1,1.3 2,1.5 -1,0.2 -2,1 -2,2 v 2.5 c 0,2.5 -2,4 -4,4 h -8 c 2.5,-0.5 4,-3 4,-5 z m 3,0 a 1.5 1.5 0 0 0 1.5 1.5 a 1.5 1.5 0 0 0 1.5 -1.5 a 1.5 1.5 0 0 0 -1.5 -1.5 a 1.5 1.5 0 0 0 -1.5 1.5 z"
    style="fill:#fff;fill-opacity:1;fill-rule:nonzero;stroke:none;stroke-width:1" />
</svg>
